<svg width="24" height="24" viewBox="0 0 24 24" xmlns="http://www.w3.org/2000/svg"><title>settings-filter</title><path d="M7.17 19H4a1 1 0 0 1 0-2h3.17a3.001 3.001 0 1 1 0 2zm10.66-8H20a1 1 0 0 1 0 2h-2.17a3.001 3.001 0 1 1 0-2zM15 13a1 1 0 1 0 0-2 1 1 0 0 0 0 2zm-3-6a1 1 0 0 1 0-2h8a1 1 0 0 1 0 2h-8zm-8 6a1 1 0 0 1 0-2h5a1 1 0 0 1 0 2H4zm6 6a1 1 0 1 0 0-2 1 1 0 0 0 0 2zM6 9a3 3 0 1 1 0-6 3 3 0 0 1 0 6zm0-2a1 1 0 1 0 0-2 1 1 0 0 0 0 2zm10 12a1 1 0 0 1 0-2h4a1 1 0 0 1 0 2h-4z" fill="#000" fill-rule="nonzero"/></svg>